# xmcd
#
# Track frame offsets:
# 150
# 12924
# 24797
# 39736
# 51866
# 64944
# 78492
# 89149
# 100893
# 113425
# 126999
#
# Disc length: 1859 seconds
#
#
# Revision: 0
# Processed by: cddbd v1.5.2PL0 Copyright (c) Steve Scherf et al.
# Submitted via: FreeRIP 2.945 
#
DISCID=8b07410b
DTITLE=Bill Anderson - Can I Come Home To You
DYEAR=1900
DGENRE=Country
TTITLE0=Can I Come Home To You
TTITLE1=Getting To Know YOu
TTITLE2=A Country Song
TTITLE3=As Much As I Love You
TTITLE4=I'm Happily Married
TTITLE5=Proof
TTITLE6=Mercy
TTITLE7=We Made Love
TTITLE8=It's Just Gonna Take Some Getting Use To
TTITLE9=The Best It's Ever Been
TTITLE10=Mama's Face
EXTD=
EXTT0=
EXTT1=
EXTT2=
EXTT3=
EXTT4=
EXTT5=
EXTT6=
EXTT7=
EXTT8=
EXTT9=
EXTT10=
PLAYORDER=
